<svg width="80" height="80" viewBox="0 0 80 80" fill="none" xmlns="http://www.w3.org/2000/svg">
<path fill-rule="evenodd" clip-rule="evenodd" d="M40 0C17.9086 0 0 17.9086 0 40C0 62.0914 17.9086 80 40 80C62.0914 80 80 62.0914 80 40C80 17.9086 62.0914 0 40 0ZM31.2061 18.7961C33.4813 18.6925 34.2085 18.6672 39.9993 18.6672C45.7919 18.6672 46.5165 18.6925 48.7916 18.7961C51.0628 18.9001 52.6139 19.2596 53.9739 19.7872C55.3784 20.3316 56.565 21.0605 57.7517 22.2472C58.9384 23.433 59.6673 24.6232 60.214 26.0263C60.7384 27.3828 61.0984 28.933 61.2051 31.2042C61.3073 33.4798 61.334 34.2069 61.334 40.0007C61.334 45.7946 61.3073 46.5199 61.2051 48.7955C61.0984 51.0657 60.7384 52.6164 60.214 53.9733C59.6673 55.376 58.9384 56.5662 57.7517 57.752C56.5664 58.9387 55.3779 59.6694 53.9752 60.2143C52.6179 60.7418 51.0659 61.1014 48.7947 61.2054C46.5192 61.3089 45.7943 61.3343 40 61.3343C34.2066 61.3343 33.4799 61.3089 31.2043 61.2054C28.9336 61.1014 27.383 60.7418 26.0256 60.2143C24.6234 59.6694 23.4331 58.9387 22.2478 57.752C21.0616 56.5662 20.3327 55.376 19.7873 53.9729C19.2602 52.6164 18.9006 51.0662 18.7962 48.795C18.6931 46.5194 18.6673 45.7946 18.6673 40.0007C18.6673 34.2069 18.694 33.4793 18.7958 31.2037C18.898 28.9335 19.258 27.3828 19.7869 26.0259C20.3335 24.6232 21.0624 23.433 22.2491 22.2472C23.4349 21.061 24.6251 20.3321 26.0283 19.7872C27.3847 19.2596 28.935 18.9001 31.2061 18.7961ZM39.9993 18.6672C40.0004 18.6672 40.0015 18.6672 40.0026 18.6672H39.996C39.9971 18.6672 39.9982 18.6672 39.9993 18.6672Z" fill="white"/>
<path fill-rule="evenodd" clip-rule="evenodd" d="M38.0887 22.5117C38.4603 22.5111 38.8601 22.5113 39.2915 22.5115L40.0025 22.5117C45.6986 22.5117 46.3737 22.5321 48.6231 22.6343C50.7031 22.7295 51.832 23.077 52.584 23.369C53.5796 23.7557 54.2893 24.2179 55.0356 24.9646C55.7822 25.7113 56.2445 26.4224 56.632 27.418C56.924 28.1691 57.272 29.298 57.3667 31.378C57.4689 33.6269 57.4912 34.3025 57.4912 39.9959C57.4912 45.6893 57.4689 46.3648 57.3667 48.6137C57.2716 50.6938 56.924 51.8227 56.632 52.5738C56.2454 53.5693 55.7822 54.2782 55.0356 55.0245C54.2889 55.7711 53.58 56.2334 52.584 56.62C51.8329 56.9134 50.7031 57.26 48.6231 57.3552C46.3742 57.4574 45.6986 57.4796 40.0025 57.4796C34.306 57.4796 33.6309 57.4574 31.382 57.3552C29.302 57.2592 28.1731 56.9116 27.4206 56.6196C26.4251 56.2329 25.7139 55.7707 24.9673 55.024C24.2206 54.2773 23.7584 53.568 23.3708 52.572C23.0788 51.8209 22.7308 50.692 22.6361 48.612C22.5339 46.363 22.5135 45.6875 22.5135 39.9905C22.5135 34.2936 22.5339 33.6216 22.6361 31.3727C22.7312 29.2926 23.0788 28.1637 23.3708 27.4117C23.7575 26.4162 24.2206 25.705 24.9673 24.9584C25.7139 24.2117 26.4251 23.7495 27.4206 23.3619C28.1726 23.0686 29.302 22.7219 31.382 22.6263C33.35 22.5375 34.1127 22.5108 38.0887 22.5063V22.5117ZM51.3896 26.0538C49.9762 26.0538 48.8296 27.1992 48.8296 28.613C48.8296 30.0263 49.9762 31.173 51.3896 31.173C52.8029 31.173 53.9496 30.0263 53.9496 28.613C53.9496 27.1996 52.8029 26.053 51.3896 26.053V26.0538ZM29.0467 40.0003C29.0467 33.9501 33.9518 29.0448 40.0019 29.0446C46.0522 29.0446 50.9562 33.95 50.9562 40.0003C50.9562 46.0506 46.0526 50.9537 40.0023 50.9537C33.952 50.9537 29.0467 46.0506 29.0467 40.0003Z" fill="white"/>
<path fill-rule="evenodd" clip-rule="evenodd" d="M40.0018 32.8892C43.9289 32.8892 47.1129 36.0727 47.1129 40.0003C47.1129 43.9275 43.9289 47.1115 40.0018 47.1115C36.0742 47.1115 32.8906 43.9275 32.8906 40.0003C32.8906 36.0727 36.0742 32.8892 40.0018 32.8892V32.8892Z" fill="white"/>
</svg>
