<svg width="83" height="58" viewBox="0 0 83 58" fill="none" xmlns="http://www.w3.org/2000/svg">
<path fill-rule="evenodd" clip-rule="evenodd" d="M50.9019 19.8199L58.5694 19.8451L58.5774 47.5113C61.9968 47.5365 65.022 45.1673 65.9875 41.8571C66.3978 40.4792 66.3093 39.2274 66.3093 37.7487C66.3093 34.7662 66.3093 31.7753 66.3093 28.7927C66.3093 25.8774 66.1966 22.7101 66.3173 19.8283C70.4367 19.9628 74.5721 20.072 76.8893 15.846C77.3881 14.9387 78.0317 13.2332 77.8789 11.9225C76.4709 11.8889 75.0227 11.9225 73.6067 11.9225C72.44 11.9225 70.493 11.7377 69.5195 12.1074C67.4035 12.9139 65.2553 13.6952 63.1795 14.5354C61.0314 15.4091 59.028 16.2325 56.9603 17.0894L53.1949 18.7697C52.849 18.9042 52.7605 18.9294 52.4386 19.1058C52.1892 19.2402 51.9639 19.2906 51.6904 19.4251C51.4812 19.5259 51.0306 19.7359 50.9019 19.8199Z" fill="#00AFEF"/>
<path fill-rule="evenodd" clip-rule="evenodd" d="M19.7734 41.9327C19.8458 42.2435 22.2837 47.2592 22.4446 47.4441C22.9997 46.8056 25.7755 40.4792 26.6364 38.9417L26.7007 38.8409C26.7651 38.7485 26.7731 38.7401 26.8214 38.7065L31.1178 47.4609C31.4074 47.2256 37.1681 35.1695 38.2462 32.9683L39.6461 30.0446C40.1208 28.9272 41.2231 27.0368 41.8265 25.6758C42.0115 25.2473 42.4219 24.5668 42.5425 24.1467C41.3035 24.5416 34.4084 29.196 33.274 30.0194C31.2948 31.4644 29.4362 32.9095 27.5857 34.5058L24.2468 37.4799C23.9411 37.8159 23.8928 37.8496 23.6032 38.1016C23.3698 38.3032 23.2089 38.5217 22.9836 38.7401C22.7423 38.9754 22.5653 39.1266 22.3239 39.3534C21.9216 39.7231 21.6078 40.076 21.0849 40.6389L19.7734 41.9327Z" fill="#ED3237"/>
<path fill-rule="evenodd" clip-rule="evenodd" d="M15.9839 34.3041C16.5954 34.0605 17.2873 33.1447 17.9712 32.8507C18.1965 32.565 19.7654 31.4392 20.1274 31.1872C20.5699 30.8763 20.8757 30.6411 21.2377 30.3722C21.5756 30.1286 22.0745 29.9354 22.3158 29.4985L19.4596 23.6426C18.8804 22.458 15.6058 15.5604 15.1311 14.8799C12.5726 11.1664 8.30036 12.0906 5.09821 11.9057C5.16257 12.309 10.2072 22.4832 10.529 23.1301C12.3795 26.8268 14.1737 30.5991 15.9839 34.3041Z" fill="#ED3237"/>
<path fill-rule="evenodd" clip-rule="evenodd" d="M61.4658 11.9141C61.3693 12.141 61.4739 12.0149 61.1118 12.1158C58.8751 12.7459 56.7511 13.3088 54.4983 14.0817L47.732 16.4593C47.5952 16.5433 46.2516 17.1819 46.0343 17.0726C45.8171 17.2995 41.0621 19.299 40.3622 19.5931L35.1566 22.0883C34.8992 22.206 35.0762 22.2396 34.9072 22.1303C34.5854 22.4496 32.5418 23.4494 31.9223 23.777C31.4235 24.0543 30.9407 24.3063 30.466 24.5752C30.096 24.7852 29.3155 25.2893 28.9615 25.3733L24.2468 28.3391C23.7962 28.6415 23.0963 29.154 22.6779 29.364C22.4365 29.5489 22.5894 29.5405 22.3158 29.4985C22.0745 29.9353 21.5756 30.1286 21.2377 30.3722C20.8757 30.6411 20.5699 30.8763 20.1274 31.1872C19.7654 31.4392 18.1965 32.565 17.9712 32.8507L17.8425 33.0859L18.1965 33.2707L18.1884 33.9681C18.2287 34.5226 18.1402 35.3123 18.2689 35.724C18.4057 36.1525 18.3654 35.8752 18.3654 36.4885L18.9608 36.4969C18.8401 36.6145 18.7919 36.2701 18.9206 36.8918C18.9769 37.1438 18.9769 36.875 18.9528 37.0346L18.8321 37.3203L19.0574 37.3539L22.0825 34.9594C30.6189 28.4735 39.3967 23.3822 49.2043 18.8202C50.4111 18.2573 51.7306 17.7196 52.9455 17.1315C54.3937 16.4173 58.9315 14.5774 60.5728 13.9809C64.7806 12.4518 68.2241 11.1664 72.5607 9.86415C73.8963 9.46088 75.4974 9.08281 76.7445 8.64594C75.1595 8.68794 67.2426 10.5111 65.2473 11.0068C64.3381 11.2252 62.2543 11.8889 61.4658 11.9141Z" fill="#0A0C9F" stroke="#0A0C9F" stroke-width="0.0626711"/>
<path fill-rule="evenodd" clip-rule="evenodd" d="M15.9839 34.3041C15.6862 34.7998 13.3771 36.4717 12.7818 36.9674C11.7761 37.7908 10.698 38.8998 9.92557 40.0172C8.57391 41.9579 7.70498 44.3439 7.98658 46.9232C8.09922 47.9314 8.31645 48.4523 8.54977 49.3428C8.79919 49.0908 8.91183 48.7463 9.08078 48.4439C9.82098 47.108 10.9474 45.4529 11.9692 44.3103C12.2427 44.0079 12.299 43.8398 12.6289 43.529C12.9185 43.2433 13.0875 43.0165 13.3128 42.7729C15.0426 40.8993 17.0299 39.0762 19.0574 37.3539L18.8321 37.3203L18.9528 37.0346C18.9769 36.875 18.9769 37.1438 18.9206 36.8918C18.7918 36.2701 18.8401 36.6146 18.9608 36.4969L18.3654 36.4885C18.3654 35.8752 18.4057 36.1525 18.2689 35.724C18.1401 35.3123 18.2287 34.5226 18.1884 33.9681L18.1965 33.2708L17.8425 33.0859L17.9712 32.8507C17.2873 33.1447 16.5954 34.0605 15.9839 34.3041Z" fill="#0A0C9F" stroke="#0A0C9F" stroke-width="0.0626711"/>
<path fill-rule="evenodd" clip-rule="evenodd" d="M34.9072 22.1303C35.0762 22.2396 34.8992 22.206 35.1566 22.0883L40.3622 19.5931C41.0621 19.299 45.8171 17.2995 46.0343 17.0726L48.5365 11.9393C45.7849 11.8805 43.1138 11.5949 40.692 12.8551C38.5197 13.9809 37.9324 15.8964 36.8543 18.0724L34.9072 22.1303Z" fill="#ED3237"/>
<path fill-rule="evenodd" clip-rule="evenodd" d="M47.7319 16.4593L54.4983 14.0817C56.7511 13.3088 58.8751 12.7459 61.1118 12.1157C61.4739 12.0149 61.3693 12.141 61.4658 11.9141C56.912 12.0485 52.9294 11.0067 49.7514 13.7792C49.0031 14.4262 48.0859 15.4595 47.7319 16.4593Z" fill="#00AFEF"/>
<path fill-rule="evenodd" clip-rule="evenodd" d="M22.6779 29.364C23.0962 29.154 23.7962 28.6415 24.2468 28.3391L28.9615 25.3733L26.8374 20.9709C26.6283 21.1558 22.9997 28.5911 22.6779 29.364Z" fill="#ED3237"/>
</svg>
