<svg width="80" height="80" viewBox="0 0 80 80" fill="none" xmlns="http://www.w3.org/2000/svg">
<path fill-rule="evenodd" clip-rule="evenodd" d="M40 0C17.9086 0 0 17.9086 0 40C0 62.0914 17.9086 80 40 80C62.0914 80 80 62.0914 80 40C80 17.9086 62.0914 0 40 0ZM38.8858 33.8965L38.8019 32.5124C38.5501 28.925 40.7604 25.6484 44.2578 24.3773C45.5449 23.9254 47.7273 23.8689 49.1542 24.2643C49.7138 24.4338 50.777 24.9987 51.5324 25.5072L52.9034 26.4393L54.4143 25.9591C55.2537 25.7049 56.3728 25.2812 56.8764 24.9987C57.3521 24.7445 57.7718 24.6033 57.7718 24.688C57.7718 25.1682 56.7365 26.8065 55.8692 27.7104C54.6941 28.9815 55.0298 29.0945 57.408 28.2471C58.835 27.7669 58.863 27.7669 58.5832 28.3036C58.4153 28.5861 57.5479 29.5747 56.6246 30.4786C55.0578 32.0322 54.9739 32.2017 54.9739 33.501C54.9739 35.5065 54.0226 39.687 53.0713 41.975C51.3086 46.2685 47.5314 50.7033 43.7542 52.9348C38.4382 56.0701 31.3594 56.8611 25.3999 55.025C23.4134 54.4036 19.9999 52.8218 19.9999 52.5393C19.9999 52.4546 21.0351 52.3416 22.2942 52.3133C24.9242 52.2568 27.5543 51.5224 29.7926 50.2231L31.3035 49.3192L29.5688 48.726C27.1066 47.8786 24.8962 45.9296 24.3367 44.0935C24.1688 43.5003 24.2248 43.4721 25.7916 43.4721L27.4144 43.4439L26.0434 42.7942C24.4206 41.975 22.9377 40.5909 22.2102 39.1786C21.6786 38.1617 21.0071 35.5913 21.203 35.3935C21.259 35.3088 21.8465 35.4783 22.518 35.7042C24.4486 36.4104 24.7004 36.2409 23.5812 35.0546C21.4828 32.9078 20.8393 29.7159 21.8465 26.6935L22.3222 25.3377L24.1688 27.1737C27.946 30.8741 32.3947 33.0773 37.4869 33.727L38.8858 33.8965Z" fill="white"/>
</svg>
