<svg width="80" height="80" viewBox="0 0 80 80" fill="none" xmlns="http://www.w3.org/2000/svg">
<path d="M42.5 75C36.0417 75 29.974 73.4375 24.2969 70.3125L0 80L9.6875 55.7031C6.5625 50.026 5 43.9583 5 37.5C5 32.3958 5.98958 27.5391 7.96875 22.9297C9.94792 18.3203 12.6172 14.3359 15.9766 10.9766C19.3359 7.61719 23.3203 4.94792 27.9297 2.96875C32.5391 0.989583 37.3958 0 42.5 0C47.6042 0 52.4609 0.989583 57.0703 2.96875C61.6797 4.94792 65.6641 7.61719 69.0234 10.9766C72.3828 14.3359 75.0521 18.3203 77.0312 22.9297C79.0104 27.5391 80 32.3958 80 37.5C80 42.6042 79.0104 47.4609 77.0312 52.0703C75.0521 56.6797 72.3828 60.6641 69.0234 64.0234C65.6641 67.3828 61.6797 70.0521 57.0703 72.0312C52.4609 74.0104 47.6042 75 42.5 75ZM55 45H50L47.1875 47.5C44.8438 46.875 41.9661 44.8568 38.5547 41.4453C35.1432 38.0339 33.125 35.1562 32.5 32.8125L35 30V25C35 24.1146 34.6875 23.2292 34.0625 22.3438C33.4375 21.4583 32.7474 20.8203 31.9922 20.4297C31.237 20.0391 30.7031 20 30.3906 20.3125L26.7188 23.9844C24.6875 26.0156 24.388 29.1797 25.8203 33.4766C27.2526 37.7734 29.987 41.9401 34.0234 45.9766C38.0599 50.013 42.2266 52.7474 46.5234 54.1797C50.8203 55.612 53.9844 55.3125 56.0156 53.2812L59.6875 49.6094C60 49.2969 59.9609 48.763 59.5703 48.0078C59.1797 47.2526 58.5417 46.5625 57.6562 45.9375C56.7708 45.3125 55.8854 45 55 45Z" fill="white"/>
</svg>
